<svg xmlns="http://www.w3.org/2000/svg" width="38" height="16" viewBox="0 0 38 16" fill="none"><g clip-path="url(#clip0_93_3321)"><path d="M8.81059 0C7.36104 0 5.97088 0.625183 4.94591 1.73802L1.60081 5.36984C0.575827 6.48268 0 7.99199 0 9.56579C0 12.8431 2.44699 15.4998 5.46551 15.4998C6.91506 15.4998 8.30522 14.8746 9.33019 13.7617L11.644 11.2496C11.644 11.2495 11.6441 11.2496 11.644 11.2496L18.3857 3.93002C18.8752 3.39854 19.5392 3.09995 20.2315 3.09995C21.3905 3.09995 22.3731 3.9201 22.7138 5.05503L24.8415 2.74499C23.8708 1.09446 22.1689 0 20.2315 0C18.7819 0 17.3918 0.625183 16.3668 1.73802L7.31127 11.5698C6.82174 12.1012 6.15781 12.3998 5.46551 12.3998C4.02388 12.3998 2.85522 11.131 2.85522 9.56579C2.85522 8.81415 3.13023 8.09331 3.61975 7.56182L6.96483 3.93002C7.45436 3.39854 8.11829 3.09995 8.81059 3.09995C9.96967 3.09995 10.9522 3.92014 11.2929 5.0551L13.4206 2.74505C12.45 1.09449 10.748 0 8.81059 0Z" fill="white"></path><path d="M18.7322 11.5698C18.2426 12.1012 17.5787 12.3998 16.8864 12.3998C15.7275 12.3998 14.745 11.5799 14.4042 10.4451L12.2766 12.7551C13.2473 14.4054 14.9491 15.4998 16.8864 15.4998C18.336 15.4998 19.7261 14.8746 20.7511 13.7617L29.8066 3.93002C30.2961 3.39854 30.9601 3.09995 31.6524 3.09995C33.094 3.09995 34.2627 4.36879 34.2627 5.93398C34.2627 6.68562 33.9877 7.40646 33.4981 7.93795L30.153 11.5698C29.6635 12.1012 28.9996 12.3998 28.3073 12.3998C27.1483 12.3998 26.1657 11.5797 25.825 10.4449L23.6974 12.7549C24.668 14.4054 26.3699 15.4998 28.3073 15.4998C29.7568 15.4998 31.147 14.8746 32.172 13.7617L35.5171 10.1299C36.542 9.01709 37.1179 7.50778 37.1179 5.93398C37.1179 2.65673 34.6709 0 31.6524 0C30.2028 0 28.8127 0.625183 27.7877 1.73802L18.7322 11.5698Z" fill="white"></path></g><defs><clipPath id="clip0_93_3321"><rect width="37.1179" height="15.4998" fill="white"></rect></clipPath></defs></svg>