<svg xmlns="http://www.w3.org/2000/svg" width="36" height="32" viewBox="0 0 36 32" fill="none"><path d="M5.69383 24.0861C6.97436 24.9793 9.05052 24.9793 10.3311 24.0861C11.6116 23.1929 11.6116 21.7447 10.3311 20.8515C9.05052 19.9583 6.97436 19.9583 5.69383 20.8515C4.4133 21.7447 4.4133 23.1929 5.69383 24.0861Z" fill="white"></path><path d="M18.9845 11.9567C20.9054 13.2965 24.0196 13.2965 25.9404 11.9567C27.8611 10.6169 27.8611 8.44472 25.9404 7.10494C24.0196 5.76515 20.9054 5.76515 18.9845 7.10494C17.0638 8.44472 17.0638 10.6169 18.9845 11.9567Z" fill="white"></path><path d="M11.9293 18.0216C13.5299 19.1381 16.1251 19.1381 17.7258 18.0216C19.3265 16.9051 19.3265 15.095 17.7258 13.9784C16.1251 12.862 13.5299 12.862 11.9293 13.9784C10.3286 15.095 10.3286 16.9051 11.9293 18.0216Z" fill="white"></path><path d="M1.63622 17.2125C2.59662 17.8824 4.15373 17.8824 5.11414 17.2125C6.07453 16.5426 6.07453 15.4565 5.11414 14.7866C4.15373 14.1167 2.59662 14.1167 1.63622 14.7866C0.675824 15.4565 0.675825 16.5426 1.63622 17.2125Z" fill="white"></path><path d="M11.9293 5.08316C13.5299 6.19964 16.1251 6.19964 17.7258 5.08316C19.3265 3.96667 19.3265 2.15649 17.7258 1.04C16.1251 -0.0764852 13.5299 -0.076486 11.9293 1.04C10.3286 2.15649 10.3286 3.96667 11.9293 5.08316Z" fill="white"></path><path d="M5.69383 11.1481C6.97436 12.0413 9.05051 12.0413 10.3311 11.1481C11.6116 10.2549 11.6116 8.8067 10.3311 7.91354C9.05051 7.02035 6.97436 7.02035 5.69383 7.91354C4.41329 8.8067 4.4133 10.2549 5.69383 11.1481Z" fill="white"></path><path d="M11.9293 30.9596C13.5299 32.0761 16.1251 32.0761 17.7258 30.9596C19.3265 29.8431 19.3265 28.0329 17.7258 26.9164C16.1251 25.8 13.5299 25.8 11.9293 26.9164C10.3286 28.0329 10.3286 29.8431 11.9293 30.9596Z" fill="white"></path><path d="M27.4392 18.425C29.3601 19.7648 32.4743 19.7648 34.3951 18.425C36.3159 17.0853 36.3159 14.913 34.3951 13.5732C32.4743 12.2334 29.3601 12.2334 27.4392 13.5732C25.5185 14.913 25.5185 17.0853 27.4392 18.425Z" fill="white"></path><path d="M18.9845 24.8947C20.9054 26.2345 24.0196 26.2345 25.9404 24.8947C27.8611 23.5549 27.8611 21.3827 25.9404 20.0429C24.0196 18.7031 20.9054 18.7031 18.9845 20.0429C17.0638 21.3827 17.0638 23.5549 18.9845 24.8947Z" fill="white"></path></svg>