<svg xmlns="http://www.w3.org/2000/svg" width="26" height="20" viewBox="0 0 26 20" fill="none"><g clip-path="url(#clip0_93_3325)"><path fill-rule="evenodd" clip-rule="evenodd" d="M0.660407 5.94894C0.00375226 7.70986 -0.168059 9.64748 0.166725 11.5169C0.501468 13.3862 1.32778 15.1034 2.54109 16.4511C3.7544 17.7988 5.3003 18.7166 6.9832 19.0885C8.66622 19.4603 10.4106 19.2694 11.9959 18.5401C13.5812 17.8107 14.9362 16.5755 15.8895 14.9907C15.9149 14.9485 15.94 14.906 15.9648 14.8633C15.9823 14.8333 15.9996 14.803 16.0169 14.7726V19.2736H16.6842C18.4002 19.2736 20.0775 18.7084 21.5042 17.6495C22.931 16.5907 24.043 15.0855 24.6996 13.3246C25.3563 11.5638 25.5281 9.62614 25.1933 7.75674C24.8585 5.88741 24.0323 4.17028 22.819 2.82257C21.6056 1.47481 20.0597 0.557016 18.3768 0.185193C16.6938 -0.186675 14.9494 0.00416825 13.3641 0.733561C11.7788 1.46296 10.4239 2.69814 9.47058 4.28289C9.42721 4.35501 9.38473 4.42776 9.34314 4.50102V5.74597e-06H8.67579C6.95987 5.74597e-06 5.2825 0.565205 3.85579 1.62412C2.42907 2.68298 1.31707 4.18805 0.660407 5.94894ZM8.00844 9.63681V1.51635C6.79205 1.63968 5.61879 2.09874 4.59733 2.85681C3.39009 3.7528 2.4492 5.02635 1.89356 6.51631C1.33792 8.00633 1.19254 9.64583 1.4758 11.2276C1.75906 12.8094 2.45824 14.2623 3.48487 15.4027C4.51155 16.5431 5.81961 17.3197 7.24365 17.6343C8.66768 17.949 10.1437 17.7875 11.4851 17.1703C12.7726 16.5779 13.8806 15.5913 14.6809 14.3272C14.0744 14.647 13.396 14.8259 12.68 14.8259C10.1 14.8259 8.00844 12.5026 8.00844 9.63681ZM17.3516 17.7573V9.63681C17.3516 6.77099 15.26 4.44776 12.68 4.44776C11.964 4.44776 11.2857 4.62666 10.6792 4.94645C11.4794 3.68236 12.5874 2.69565 13.8749 2.1033C15.2163 1.48612 16.6924 1.32464 18.1164 1.63928C19.5404 1.9539 20.8485 2.73054 21.8752 3.87089C22.9018 5.01129 23.601 6.46423 23.8842 8.04598C24.1675 9.62779 24.0221 11.2673 23.4665 12.7573C22.9109 14.2473 21.97 15.5208 20.7627 16.4168C19.7413 17.1749 18.568 17.6339 17.3516 17.7573ZM12.6133 13.3426C10.8233 13.3035 9.37896 11.6991 9.34384 9.71095H10.6063C11.6021 9.96309 12.3862 10.8338 12.6133 11.9401V13.3426ZM12.7467 13.3426C14.5366 13.3035 15.9811 11.6991 16.0162 9.71095H14.7538C13.7578 9.96309 12.9737 10.834 12.7467 11.9404V13.3426ZM16.0162 9.56268C15.9811 7.57453 14.5366 5.97007 12.7467 5.93107V7.33327C12.9737 8.43957 13.7577 9.31047 14.7536 9.56268H16.0162ZM12.6133 5.93107C10.8234 5.97007 9.37896 7.57453 9.34384 9.56268H10.6065C11.6023 9.31047 12.3862 8.43971 12.6133 7.33354V5.93107Z" fill="white"></path></g><defs><clipPath id="clip0_93_3325"><rect width="25.36" height="19.2736" fill="white"></rect></clipPath></defs></svg>